<svg t="1735789223452" class="icon" viewBox="0 0 1024 1024" version="1.1" xmlns="http://www.w3.org/2000/svg" p-id="1186" width="16" height="16"><path d="M804.416 368.864a25.6 25.6 0 0 0-34.24-11.776L506.336 485.76a25.6 25.6 0 1 0 22.432 46.016l263.872-128.672a25.6 25.6 0 0 0 11.776-34.24z" fill="#0252D9" p-id="1187"></path><path d="M544 162.496l254.688 147.04a64 64 0 0 1 32 55.424v294.08a64 64 0 0 1-32 55.456l-254.72 147.04a64 64 0 0 1-64 0L225.28 714.496a64 64 0 0 1-32-55.424v-294.08a64 64 0 0 1 32-55.456L480 162.496a64 64 0 0 1 64 0z m-25.6 44.352a12.8 12.8 0 0 0-12.8 0L250.88 353.888a12.8 12.8 0 0 0-6.4 11.072v294.08a12.8 12.8 0 0 0 6.4 11.104l254.72 147.072a12.8 12.8 0 0 0 12.8 0l254.688-147.072a12.8 12.8 0 0 0 6.4-11.072v-294.08a12.8 12.8 0 0 0-6.4-11.104l-254.72-147.04z" fill="#172B3D" p-id="1188"></path><path d="M240.16 354.176a25.6 25.6 0 0 1 34.976-9.376l237.664 137.216a25.6 25.6 0 1 1-25.6 44.352L249.536 389.12a25.6 25.6 0 0 1-9.376-34.976z" fill="#172B3D" p-id="1189"></path><path d="M481.312 481.344m25.6 0l0 0q25.6 0 25.6 25.6l0 316.8q0 25.6-25.6 25.6l0 0q-25.6 0-25.6-25.6l0-316.8q0-25.6 25.6-25.6Z" fill="#172B3D" p-id="1190"></path></svg>