<svg width="32" height="32" viewBox="0 0 32 32" fill="none" xmlns="http://www.w3.org/2000/svg">
<circle cx="16" cy="16" r="15" stroke="black" stroke-width="2"/>
<path d="M3.6321 20V12.7273H8.53267V13.995H5.16974V15.728H8.28054V16.9957H5.16974V18.7322H8.54688V20H3.6321ZM21.0149 14.8189C20.9865 14.5324 20.8646 14.3099 20.6491 14.1513C20.4337 13.9927 20.1413 13.9134 19.772 13.9134C19.5211 13.9134 19.3092 13.9489 19.1364 14.0199C18.9635 14.0885 18.831 14.1844 18.7386 14.3075C18.6487 14.4306 18.6037 14.5703 18.6037 14.7266C18.599 14.8568 18.6262 14.9704 18.6854 15.0675C18.7469 15.1645 18.831 15.2486 18.9375 15.3196C19.044 15.3883 19.1671 15.4486 19.3068 15.5007C19.4465 15.5504 19.5956 15.593 19.7543 15.6286L20.4077 15.7848C20.7249 15.8558 21.0161 15.9505 21.2812 16.0689C21.5464 16.1873 21.776 16.3329 21.9702 16.5057C22.1643 16.6785 22.3146 16.8821 22.4212 17.1165C22.5301 17.3509 22.5857 17.6196 22.5881 17.9226C22.5857 18.3677 22.4721 18.7536 22.2472 19.0803C22.0246 19.4046 21.7027 19.6567 21.2812 19.8366C20.8622 20.0142 20.3568 20.103 19.7649 20.103C19.1778 20.103 18.6664 20.013 18.2308 19.8331C17.7976 19.6532 17.459 19.3868 17.2152 19.0341C16.9737 18.679 16.8471 18.2398 16.8352 17.7166H18.3232C18.3397 17.9605 18.4096 18.1641 18.5327 18.3274C18.6581 18.4884 18.825 18.6103 19.0334 18.6932C19.2441 18.7737 19.482 18.8139 19.7472 18.8139C20.0076 18.8139 20.2337 18.776 20.4254 18.7003C20.6196 18.6245 20.7699 18.5192 20.8764 18.3842C20.983 18.2493 21.0362 18.0942 21.0362 17.919C21.0362 17.7557 20.9877 17.6184 20.8906 17.5071C20.7959 17.3958 20.6563 17.3011 20.4716 17.223C20.2893 17.1449 20.0656 17.0739 19.8004 17.0099L19.0085 16.8111C18.3954 16.6619 17.9112 16.4287 17.5561 16.1115C17.201 15.7943 17.0246 15.367 17.027 14.8295C17.0246 14.3892 17.1418 14.0045 17.3786 13.6754C17.6177 13.3464 17.9455 13.0895 18.3622 12.9048C18.7789 12.7202 19.2524 12.6278 19.7827 12.6278C20.3224 12.6278 20.7936 12.7202 21.196 12.9048C21.6009 13.0895 21.9157 13.3464 22.1406 13.6754C22.3655 14.0045 22.4815 14.3857 22.4886 14.8189H21.0149Z" fill="black"/>
<path d="M11.0087 20H9.36097L11.8716 12.7273H13.8532L16.3603 20H14.7125L12.8908 14.3892H12.834L11.0087 20ZM10.9057 17.1413H14.7978V18.3416H10.9057V17.1413ZM23.1962 12.7273H24.9185L26.5769 15.8594H26.6479L28.3063 12.7273H30.0286L27.3759 17.429V20H25.8489V17.429L23.1962 12.7273Z" fill="#FF0000"/>
</svg>
